# xmcd CD database file
#
# Track frame offsets:
#	150
#	16696
#	38127
#	59206
#	86288
#	123959
#	136755
#	167512
#	184315
#	197889
#
# Disc length: 2843 seconds
#
# Revision: 0
# Processed by: cddbd v1.5.2PL0 Copyright (c) Steve Scherf et al.
# Submitted via: CDex 1.79
#
DISCID=7f0b190a
DTITLE=Earthly Bird - Earthly Bird
DYEAR=2014
DGENRE=Jazz
TTITLE0=Dead and lovely ( T.Waits )
TTITLE1=Poule 1 ( S.Coste )
TTITLE2=Kiwi ( S.Coste )
TTITLE3=Django ( J.Lewis )
TTITLE4=Dodo ( S.Coste )
TTITLE5=Saint dog ( T.Cora )
TTITLE6=Nuit sans sommeil ( B.Achiary )
TTITLE7='Round midnight ( T.Monk )
TTITLE8=Perdrix ( Earthly Bird )
TTITLE9=Poule 2 ( S.Coste )
EXTD=YEAR: 2014
EXTT0=
EXTT1=
EXTT2=
EXTT3=
EXTT4=
EXTT5=
EXTT6=
EXTT7=
EXTT8=
EXTT9=
PLAYORDER=
